<?xml version="1.0" standalone="no"?>
<!DOCTYPE svg PUBLIC "-//W3C//DTD SVG 20010904//EN"
 "http://www.w3.org/TR/2001/REC-SVG-20010904/DTD/svg10.dtd">
<svg version="1.0" xmlns="http://www.w3.org/2000/svg"
 width="900.000000pt" height="520.000000pt" viewBox="0 0 900.000000 520.000000"
 preserveAspectRatio="xMidYMid meet">

<g transform="translate(0.000000,520.000000) scale(0.100000,-0.100000)"
fill="#000000" stroke="none">
<path d="M2289 4459 c-112 -12 -235 -93 -294 -194 -57 -97 -55 -31 -55 -1625
0 -1292 2 -1473 16 -1525 35 -136 121 -227 268 -282 36 -14 280 -16 2211 -18
1194 -1 2207 1 2251 5 187 16 330 141 364 319 6 35 10 572 10 1525 0 1598 3
1514 -54 1611 -45 76 -145 151 -236 176 -35 10 -515 13 -2235 13 -1204 1
-2215 -2 -2246 -5z m4440 -249 c40 -20 91 -73 91 -94 0 -7 -188 -158 -417
-336 -1403 -1089 -1762 -1366 -1800 -1387 -52 -30 -129 -39 -187 -23 -29 8
-91 49 -187 123 -351 271 -2025 1571 -2038 1582 -8 8 -10 21 -6 35 10 32 66
91 100 106 24 11 432 13 2218 14 2152 0 2188 0 2226 -20z m97 -2947 c-5 -5
-1635 1259 -1636 1268 0 3 64 55 143 116 78 60 297 229 487 375 190 147 494
381 675 521 l330 254 3 -1265 c1 -696 0 -1267 -2 -1269z m-4231 2196 c209
-161 470 -363 580 -448 110 -85 247 -191 305 -236 58 -45 153 -119 213 -164
59 -46 107 -86 107 -90 -1 -3 -125 -103 -277 -221 -153 -118 -515 -401 -806
-627 -291 -227 -531 -413 -533 -413 -2 0 -4 568 -4 1262 0 1200 1 1260 18
1246 9 -8 188 -147 397 -309z m2545 -1199 c47 -37 247 -192 445 -345 1009
-782 1124 -873 1109 -879 -23 -9 -4367 -7 -4380 2 -7 4 106 98 285 238 163
127 541 422 842 655 300 234 550 428 555 432 6 3 53 -28 105 -70 162 -130 241
-163 382 -163 152 1 218 28 387 160 l114 89 36 -26 c19 -15 73 -56 120 -93z"/>
</g>
</svg>
